<?xml version="1.0" encoding="UTF-8" standalone="no"?>
<!DOCTYPE svg PUBLIC "-//W3C//DTD SVG 1.1//EN"
 "http://www.w3.org/Graphics/SVG/1.1/DTD/svg11.dtd">
<!-- Generated by graphviz version 2.38.0 (20140413.2041)
 -->
<!-- Title: controllers_diagram Pages: 1 -->
<svg width="538pt" height="493pt"
 viewBox="0.00 0.00 538.18 493.10" xmlns="http://www.w3.org/2000/svg" xmlns:xlink="http://www.w3.org/1999/xlink">
<g id="graph0" class="graph" transform="scale(1 1) rotate(0) translate(219.729 327.5)">
<title>controllers_diagram</title>
<polygon fill="white" stroke="none" points="-219.729,165.602 -219.729,-327.5 318.45,-327.5 318.45,165.602 -219.729,165.602"/>
<!-- _diagram_info -->
<g id="node1" class="node"><title>_diagram_info</title>
<text text-anchor="start" x="115.55" y="48.9" font-family="Times,serif" font-size="13.00">Controllers diagram</text>
<text text-anchor="start" x="115.55" y="61.9" font-family="Times,serif" font-size="13.00">Date: Jul 06 2014 &#45; 17:09</text>
<text text-anchor="start" x="115.55" y="74.9" font-family="Times,serif" font-size="13.00">Migration version: 20140706081101</text>
<text text-anchor="start" x="115.55" y="87.9" font-family="Times,serif" font-size="13.00">Generated by RailRoady 1.1.1</text>
<text text-anchor="start" x="115.55" y="100.9" font-family="Times,serif" font-size="13.00">http://railroady.prestonlee.com</text>
</g>
<!-- ActivitiesController -->
<g id="node2" class="node"><title>ActivitiesController</title>
<path fill="none" stroke="black" d="M-203.729,46.4768C-203.729,46.4768 -99.7495,46.4768 -99.7495,46.4768 -93.7495,46.4768 -87.7495,40.4768 -87.7495,34.4768 -87.7495,34.4768 -87.7495,-157.523 -87.7495,-157.523 -87.7495,-163.523 -93.7495,-169.523 -99.7495,-169.523 -99.7495,-169.523 -203.729,-169.523 -203.729,-169.523 -209.729,-169.523 -215.729,-163.523 -215.729,-157.523 -215.729,-157.523 -215.729,34.4768 -215.729,34.4768 -215.729,40.4768 -209.729,46.4768 -203.729,46.4768"/>
<text text-anchor="middle" x="-151.739" y="-154.323" font-family="Times,serif" font-size="14.00">ActivitiesController</text>
<polyline fill="none" stroke="black" points="-215.729,-147.523 -87.7495,-147.523 "/>
<text text-anchor="start" x="-207.729" y="-132.323" font-family="Times,serif" font-size="14.00">create</text>
<text text-anchor="start" x="-207.729" y="-118.323" font-family="Times,serif" font-size="14.00">destroy</text>
<text text-anchor="start" x="-207.729" y="-104.323" font-family="Times,serif" font-size="14.00">edit</text>
<text text-anchor="start" x="-207.729" y="-90.3232" font-family="Times,serif" font-size="14.00">finish</text>
<text text-anchor="start" x="-207.729" y="-76.3232" font-family="Times,serif" font-size="14.00">index</text>
<text text-anchor="start" x="-207.729" y="-62.3232" font-family="Times,serif" font-size="14.00">new</text>
<text text-anchor="start" x="-207.729" y="-48.3232" font-family="Times,serif" font-size="14.00">resume</text>
<text text-anchor="start" x="-207.729" y="-34.3232" font-family="Times,serif" font-size="14.00">tags</text>
<text text-anchor="start" x="-207.729" y="-20.3232" font-family="Times,serif" font-size="14.00">update</text>
<polyline fill="none" stroke="black" points="-215.729,-13.5232 -87.7495,-13.5232 "/>
<polyline fill="none" stroke="black" points="-215.729,10.4768 -87.7495,10.4768 "/>
<text text-anchor="start" x="-207.729" y="25.6768" font-family="Times,serif" font-size="14.00">_layout</text>
<text text-anchor="start" x="-207.729" y="39.6768" font-family="Times,serif" font-size="14.00">activity_params</text>
</g>
<!-- AnalyticsController -->
<g id="node3" class="node"><title>AnalyticsController</title>
<path fill="none" stroke="black" d="M69.2163,-24.7838C69.2163,-24.7838 172.416,-24.7838 172.416,-24.7838 178.416,-24.7838 184.416,-30.7838 184.416,-36.7838 184.416,-36.7838 184.416,-102.784 184.416,-102.784 184.416,-108.784 178.416,-114.784 172.416,-114.784 172.416,-114.784 69.2163,-114.784 69.2163,-114.784 63.2163,-114.784 57.2163,-108.784 57.2163,-102.784 57.2163,-102.784 57.2163,-36.7838 57.2163,-36.7838 57.2163,-30.7838 63.2163,-24.7838 69.2163,-24.7838"/>
<text text-anchor="middle" x="120.816" y="-99.5838" font-family="Times,serif" font-size="14.00">AnalyticsController</text>
<polyline fill="none" stroke="black" points="57.2163,-92.7838 184.416,-92.7838 "/>
<text text-anchor="start" x="65.2163" y="-77.5838" font-family="Times,serif" font-size="14.00">index</text>
<polyline fill="none" stroke="black" points="57.2163,-70.7838 184.416,-70.7838 "/>
<polyline fill="none" stroke="black" points="57.2163,-46.7838 184.416,-46.7838 "/>
<text text-anchor="start" x="65.2163" y="-31.5838" font-family="Times,serif" font-size="14.00">_layout</text>
</g>
<!-- ApplicationController -->
<g id="node4" class="node"><title>ApplicationController</title>
<path fill="none" stroke="black" d="M-63.4018,161.102C-63.4018,161.102 52.2398,161.102 52.2398,161.102 58.2398,161.102 64.2398,155.102 64.2398,149.102 64.2398,149.102 64.2398,81.1019 64.2398,81.1019 64.2398,75.1019 58.2398,69.1019 52.2398,69.1019 52.2398,69.1019 -63.4018,69.1019 -63.4018,69.1019 -69.4018,69.1019 -75.4018,75.1019 -75.4018,81.1019 -75.4018,81.1019 -75.4018,149.102 -75.4018,149.102 -75.4018,155.102 -69.4018,161.102 -63.4018,161.102"/>
<text text-anchor="middle" x="-5.58105" y="84.3019" font-family="Times,serif" font-size="14.00">ApplicationController</text>
<polyline fill="none" stroke="black" points="-75.4018,91.1019 64.2398,91.1019 "/>
<polyline fill="none" stroke="black" points="-75.4018,115.102 64.2398,115.102 "/>
<polyline fill="none" stroke="black" points="-75.4018,139.102 64.2398,139.102 "/>
<text text-anchor="start" x="-67.4018" y="154.302" font-family="Times,serif" font-size="14.00">_layout</text>
</g>
<!-- ApplicationController&#45;&gt;ActivitiesController -->
<g id="edge1" class="edge"><title>ApplicationController&#45;&gt;ActivitiesController</title>
<path fill="none" stroke="black" d="M-43.9824,68.6957C-57.3458,52.5467 -72.7231,33.9639 -87.5989,15.9873"/>
</g>
<!-- ApplicationController&#45;&gt;AnalyticsController -->
<g id="edge2" class="edge"><title>ApplicationController&#45;&gt;AnalyticsController</title>
<path fill="none" stroke="black" d="M25.9883,68.9243C45.5117,40.3669 70.4609,3.87285 89.8677,-24.5141"/>
</g>
<!-- SmartwatchesController -->
<g id="node5" class="node"><title>SmartwatchesController</title>
<path fill="none" stroke="black" d="M173.962,-163C173.962,-163 302.038,-163 302.038,-163 308.038,-163 314.038,-169 314.038,-175 314.038,-175 314.038,-311 314.038,-311 314.038,-317 308.038,-323 302.038,-323 302.038,-323 173.962,-323 173.962,-323 167.962,-323 161.962,-317 161.962,-311 161.962,-311 161.962,-175 161.962,-175 161.962,-169 167.962,-163 173.962,-163"/>
<text text-anchor="middle" x="238" y="-307.8" font-family="Times,serif" font-size="14.00">SmartwatchesController</text>
<polyline fill="none" stroke="black" points="161.962,-301 314.038,-301 "/>
<text text-anchor="start" x="169.962" y="-285.8" font-family="Times,serif" font-size="14.00">activities</text>
<text text-anchor="start" x="169.962" y="-271.8" font-family="Times,serif" font-size="14.00">analytics</text>
<text text-anchor="start" x="169.962" y="-257.8" font-family="Times,serif" font-size="14.00">finish</text>
<text text-anchor="start" x="169.962" y="-243.8" font-family="Times,serif" font-size="14.00">resume</text>
<text text-anchor="start" x="169.962" y="-229.8" font-family="Times,serif" font-size="14.00">show</text>
<text text-anchor="start" x="169.962" y="-215.8" font-family="Times,serif" font-size="14.00">start_activity</text>
<polyline fill="none" stroke="black" points="161.962,-209 314.038,-209 "/>
<polyline fill="none" stroke="black" points="161.962,-185 314.038,-185 "/>
<text text-anchor="start" x="169.962" y="-169.8" font-family="Times,serif" font-size="14.00">_layout</text>
</g>
</g>
</svg>
