<?xml version="1.0" encoding="UTF-8" standalone="no"?>
<!DOCTYPE svg PUBLIC "-//W3C//DTD SVG 1.1//EN"
 "http://www.w3.org/Graphics/SVG/1.1/DTD/svg11.dtd">
<!-- Generated by graphviz version 2.38.0 (20140413.2041)
 -->
<!-- Title: models_diagram Pages: 1 -->
<svg width="566pt" height="313pt"
 viewBox="0.00 0.00 566.06 313.00" xmlns="http://www.w3.org/2000/svg" xmlns:xlink="http://www.w3.org/1999/xlink">
<g id="graph0" class="graph" transform="scale(1 1) rotate(0) translate(4 309)">
<title>models_diagram</title>
<polygon fill="white" stroke="none" points="-4,4 -4,-309 562.058,-309 562.058,4 -4,4"/>
<!-- _diagram_info -->
<g id="node1" class="node"><title>_diagram_info</title>
<text text-anchor="start" x="117.553" y="-290.6" font-family="Times,serif" font-size="13.00">Models diagram</text>
<text text-anchor="start" x="117.553" y="-277.6" font-family="Times,serif" font-size="13.00">Date: Jul 06 2014 &#45; 17:09</text>
<text text-anchor="start" x="117.553" y="-264.6" font-family="Times,serif" font-size="13.00">Migration version: 20140706081101</text>
<text text-anchor="start" x="117.553" y="-251.6" font-family="Times,serif" font-size="13.00">Generated by RailRoady 1.1.1</text>
<text text-anchor="start" x="117.553" y="-238.6" font-family="Times,serif" font-size="13.00">http://railroady.prestonlee.com</text>
</g>
<!-- Activity -->
<g id="node2" class="node"><title>Activity</title>
<ellipse fill="none" stroke="black" cx="361.003" cy="-104" rx="39.18" ry="18"/>
<text text-anchor="middle" x="361.003" y="-99.8" font-family="Times,serif" font-size="14.00">Activity</text>
</g>
<!-- TimeRange -->
<g id="node3" class="node"><title>TimeRange</title>
<ellipse fill="none" stroke="black" cx="507.003" cy="-18" rx="51.1108" ry="18"/>
<text text-anchor="middle" x="507.003" y="-13.8" font-family="Times,serif" font-size="14.00">TimeRange</text>
</g>
<!-- Activity&#45;&gt;TimeRange -->
<g id="edge5" class="edge"><title>Activity&#45;&gt;TimeRange</title>
<path fill="none" stroke="#6114dc" d="M391.62,-85.3846C415.145,-71.8494 447.655,-53.1451 472.173,-39.0392"/>
<ellipse fill="none" stroke="#6114dc" cx="387.927" cy="-87.5091" rx="4.00002" ry="4.00002"/>
<polygon fill="#6114dc" stroke="#6114dc" points="472.475,-38.8654 483.387,-37.779 476.809,-36.3719 481.143,-33.8784 481.143,-33.8784 481.143,-33.8784 476.809,-36.3719 478.898,-29.9779 472.475,-38.8654 472.475,-38.8654"/>
</g>
<!-- ActsAsTaggableOn::Tagging -->
<g id="node5" class="node"><title>ActsAsTaggableOn::Tagging</title>
<ellipse fill="none" stroke="black" cx="113.003" cy="-18" rx="113.006" ry="18"/>
<text text-anchor="middle" x="113.003" y="-13.8" font-family="Times,serif" font-size="14.00">ActsAsTaggableOn::Tagging</text>
</g>
<!-- Activity&#45;&gt;ActsAsTaggableOn::Tagging -->
<g id="edge1" class="edge"><title>Activity&#45;&gt;ActsAsTaggableOn::Tagging</title>
<path fill="none" stroke="#e176e6" d="M313.593,-102.865C271.212,-100.913 208.57,-93.3978 160.561,-68 149.539,-62.1688 139.545,-52.8569 131.596,-43.9091"/>
<ellipse fill="none" stroke="#e176e6" cx="317.792" cy="-103.029" rx="4" ry="4"/>
<polygon fill="#e176e6" stroke="#e176e6" points="131.587,-43.8988 128.61,-33.3448 128.374,-40.0676 125.161,-36.2363 125.161,-36.2363 125.161,-36.2363 128.374,-40.0676 121.713,-39.1278 131.587,-43.8988 131.587,-43.8988"/>
<text text-anchor="middle" x="183.723" y="-56.8" font-family="Times,serif" font-size="14.00">taggings</text>
</g>
<!-- Activity&#45;&gt;ActsAsTaggableOn::Tagging -->
<g id="edge3" class="edge"><title>Activity&#45;&gt;ActsAsTaggableOn::Tagging</title>
<path fill="none" stroke="#64b412" d="M322.342,-90.2934C302.356,-83.6958 277.579,-75.4719 255.458,-68 226.328,-58.1604 193.91,-47.0244 167.367,-37.8578"/>
<ellipse fill="none" stroke="#64b412" cx="326.231" cy="-91.5762" rx="4.00001" ry="4.00001"/>
<polygon fill="#64b412" stroke="#64b412" points="167.322,-37.8424 159.341,-30.3226 162.597,-36.2091 157.871,-34.5757 157.871,-34.5757 157.871,-34.5757 162.597,-36.2091 156.401,-38.8289 167.322,-37.8424 167.322,-37.8424"/>
<text text-anchor="middle" x="290.775" y="-56.8" font-family="Times,serif" font-size="14.00">tag_taggings</text>
</g>
<!-- ActsAsTaggableOn::Tag -->
<g id="node6" class="node"><title>ActsAsTaggableOn::Tag</title>
<ellipse fill="none" stroke="black" cx="341.003" cy="-18" rx="97.0617" ry="18"/>
<text text-anchor="middle" x="341.003" y="-13.8" font-family="Times,serif" font-size="14.00">ActsAsTaggableOn::Tag</text>
</g>
<!-- Activity&#45;&gt;ActsAsTaggableOn::Tag -->
<g id="edge2" class="edge"><title>Activity&#45;&gt;ActsAsTaggableOn::Tag</title>
<path fill="none" stroke="#286ea7" d="M339.069,-79.075C336.831,-75.563 334.897,-71.8312 333.575,-68 331.171,-61.0346 331.207,-53.2458 332.319,-45.964"/>
<polygon fill="#286ea7" stroke="#286ea7" points="339.175,-79.2188 341.458,-89.9444 342.131,-83.2513 345.087,-87.2839 345.087,-87.2839 345.087,-87.2839 342.131,-83.2513 348.716,-84.6233 339.175,-79.2188 339.175,-79.2188"/>
<polygon fill="#286ea7" stroke="#286ea7" points="332.329,-45.9153 338.862,-37.1074 333.397,-41.0307 334.466,-36.1461 334.466,-36.1461 334.466,-36.1461 333.397,-41.0307 330.069,-35.1848 332.329,-45.9153 332.329,-45.9153"/>
<text text-anchor="middle" x="360.217" y="-56.8" font-family="Times,serif" font-size="14.00">base_tags</text>
</g>
<!-- Activity&#45;&gt;ActsAsTaggableOn::Tag -->
<g id="edge4" class="edge"><title>Activity&#45;&gt;ActsAsTaggableOn::Tag</title>
<path fill="none" stroke="#6e8ec2" d="M384.048,-79.7576C389.32,-71.675 392.273,-62.5038 388.003,-54 385.78,-49.5734 382.703,-45.5646 379.176,-41.9748"/>
<polygon fill="#6e8ec2" stroke="#6e8ec2" points="384.023,-79.7908 374.355,-84.9663 380.971,-83.7517 377.92,-87.7126 377.92,-87.7126 377.92,-87.7126 380.971,-83.7517 381.485,-90.459 384.023,-79.7908 384.023,-79.7908"/>
<polygon fill="#6e8ec2" stroke="#6e8ec2" points="378.959,-41.7844 374.402,-31.8101 375.198,-38.4897 371.437,-35.195 371.437,-35.195 371.437,-35.195 375.198,-38.4897 368.472,-38.5799 378.959,-41.7844 378.959,-41.7844"/>
<text text-anchor="middle" x="401.279" y="-56.8" font-family="Times,serif" font-size="14.00">tags</text>
</g>
<!-- User -->
<g id="node4" class="node"><title>User</title>
<ellipse fill="none" stroke="black" cx="416.003" cy="-177" rx="27" ry="18"/>
<text text-anchor="middle" x="416.003" y="-172.8" font-family="Times,serif" font-size="14.00">User</text>
</g>
<!-- User&#45;&gt;Activity -->
<g id="edge8" class="edge"><title>User&#45;&gt;Activity</title>
<path fill="none" stroke="#525b06" d="M399.147,-154.24C393.006,-146.313 386.027,-137.304 379.734,-129.18"/>
<ellipse fill="none" stroke="#525b06" cx="401.619" cy="-157.432" rx="4.00002" ry="4.00002"/>
<polygon fill="#525b06" stroke="#525b06" points="379.61,-129.021 377.044,-118.359 376.548,-125.068 373.486,-121.115 373.486,-121.115 373.486,-121.115 376.548,-125.068 369.929,-123.871 379.61,-129.021 379.61,-129.021"/>
</g>
<!-- ActiveRecord::Base -->
<g id="node7" class="node"><title>ActiveRecord::Base</title>
<ellipse fill="none" stroke="black" cx="416.003" cy="-268.5" rx="81.1422" ry="18"/>
<text text-anchor="middle" x="416.003" y="-264.3" font-family="Times,serif" font-size="14.00">ActiveRecord::Base</text>
</g>
<!-- ActiveRecord::Base&#45;&gt;Activity -->
<g id="edge6" class="edge"><title>ActiveRecord::Base&#45;&gt;Activity</title>
<path fill="none" stroke="black" d="M405.995,-250.457C397.944,-236.094 386.876,-214.779 380.003,-195 371.458,-170.412 366.092,-140.649 363.32,-122.268"/>
</g>
<!-- ActiveRecord::Base&#45;&gt;TimeRange -->
<g id="edge7" class="edge"><title>ActiveRecord::Base&#45;&gt;TimeRange</title>
<path fill="none" stroke="black" d="M425.367,-250.565C433.138,-236.09 444.147,-214.561 452.003,-195 474.849,-138.112 494.292,-67.8486 502.639,-36.0538"/>
</g>
<!-- ActiveRecord::Base&#45;&gt;User -->
<g id="edge9" class="edge"><title>ActiveRecord::Base&#45;&gt;User</title>
<path fill="none" stroke="black" d="M416.003,-250.243C416.003,-234.395 416.003,-211.035 416.003,-195.204"/>
</g>
</g>
</svg>
