<?xml version="1.0" encoding="UTF-8" standalone="no"?>
<!DOCTYPE svg PUBLIC "-//W3C//DTD SVG 1.1//EN"
 "http://www.w3.org/Graphics/SVG/1.1/DTD/svg11.dtd">
<!-- Generated by graphviz version 2.38.0 (20140413.2041)
 -->
<!-- Title: models_diagram Pages: 1 -->
<svg width="598pt" height="648pt"
 viewBox="0.00 0.00 597.52 648.00" xmlns="http://www.w3.org/2000/svg" xmlns:xlink="http://www.w3.org/1999/xlink">
<g id="graph0" class="graph" transform="scale(1 1) rotate(0) translate(4 644)">
<title>models_diagram</title>
<polygon fill="white" stroke="none" points="-4,4 -4,-644 593.518,-644 593.518,4 -4,4"/>
<!-- _diagram_info -->
<g id="node1" class="node"><title>_diagram_info</title>
<text text-anchor="start" x="94.5531" y="-625.6" font-family="Times,serif" font-size="13.00">Models diagram</text>
<text text-anchor="start" x="94.5531" y="-612.6" font-family="Times,serif" font-size="13.00">Date: Jul 06 2014 &#45; 17:09</text>
<text text-anchor="start" x="94.5531" y="-599.6" font-family="Times,serif" font-size="13.00">Migration version: 20140706081101</text>
<text text-anchor="start" x="94.5531" y="-586.6" font-family="Times,serif" font-size="13.00">Generated by RailRoady 1.1.1</text>
<text text-anchor="start" x="94.5531" y="-573.6" font-family="Times,serif" font-size="13.00">http://railroady.prestonlee.com</text>
</g>
<!-- Activity -->
<g id="node2" class="node"><title>Activity</title>
<path fill="none" stroke="black" d="M223.497,-165.5C223.497,-165.5 332.508,-165.5 332.508,-165.5 338.508,-165.5 344.508,-171.5 344.508,-177.5 344.508,-177.5 344.508,-267.5 344.508,-267.5 344.508,-273.5 338.508,-279.5 332.508,-279.5 332.508,-279.5 223.497,-279.5 223.497,-279.5 217.497,-279.5 211.497,-273.5 211.497,-267.5 211.497,-267.5 211.497,-177.5 211.497,-177.5 211.497,-171.5 217.497,-165.5 223.497,-165.5"/>
<text text-anchor="middle" x="278.003" y="-264.3" font-family="Times,serif" font-size="14.00">Activity</text>
<polyline fill="none" stroke="black" points="211.497,-257.5 344.508,-257.5 "/>
<text text-anchor="start" x="219.497" y="-242.3" font-family="Times,serif" font-size="14.00">id :integer</text>
<text text-anchor="start" x="219.497" y="-228.3" font-family="Times,serif" font-size="14.00">name :string</text>
<text text-anchor="start" x="219.497" y="-214.3" font-family="Times,serif" font-size="14.00">notes :text</text>
<text text-anchor="start" x="219.497" y="-200.3" font-family="Times,serif" font-size="14.00">user_id :integer</text>
<text text-anchor="start" x="219.497" y="-186.3" font-family="Times,serif" font-size="14.00">created_at :datetime</text>
<text text-anchor="start" x="219.497" y="-172.3" font-family="Times,serif" font-size="14.00">updated_at :datetime</text>
</g>
<!-- TimeRange -->
<g id="node3" class="node"><title>TimeRange</title>
<path fill="none" stroke="black" d="M468.487,-0.5C468.487,-0.5 577.518,-0.5 577.518,-0.5 583.518,-0.5 589.518,-6.5 589.518,-12.5 589.518,-12.5 589.518,-102.5 589.518,-102.5 589.518,-108.5 583.518,-114.5 577.518,-114.5 577.518,-114.5 468.487,-114.5 468.487,-114.5 462.487,-114.5 456.487,-108.5 456.487,-102.5 456.487,-102.5 456.487,-12.5 456.487,-12.5 456.487,-6.5 462.487,-0.5 468.487,-0.5"/>
<text text-anchor="middle" x="523.003" y="-99.3" font-family="Times,serif" font-size="14.00">TimeRange</text>
<polyline fill="none" stroke="black" points="456.487,-92.5 589.518,-92.5 "/>
<text text-anchor="start" x="464.487" y="-77.3" font-family="Times,serif" font-size="14.00">id :integer</text>
<text text-anchor="start" x="464.487" y="-63.3" font-family="Times,serif" font-size="14.00">created_at :datetime</text>
<text text-anchor="start" x="464.487" y="-49.3" font-family="Times,serif" font-size="14.00">updated_at :datetime</text>
<text text-anchor="start" x="464.487" y="-35.3" font-family="Times,serif" font-size="14.00">started_at :datetime</text>
<text text-anchor="start" x="464.487" y="-21.3" font-family="Times,serif" font-size="14.00">finished_at :datetime</text>
<text text-anchor="start" x="464.487" y="-7.3" font-family="Times,serif" font-size="14.00">activity_id :integer</text>
</g>
<!-- Activity&#45;&gt;TimeRange -->
<g id="edge5" class="edge"><title>Activity&#45;&gt;TimeRange</title>
<path fill="none" stroke="#399f5c" d="M351.676,-176.785C381.595,-158.185 416.281,-136.054 447.003,-115 447.393,-114.733 447.783,-114.464 448.175,-114.195"/>
<ellipse fill="none" stroke="#399f5c" cx="347.977" cy="-179.079" rx="4.00002" ry="4.00002"/>
<polygon fill="#399f5c" stroke="#399f5c" points="448.282,-114.121 459.058,-112.093 452.383,-111.261 456.485,-108.401 456.485,-108.401 456.485,-108.401 452.383,-111.261 453.911,-104.71 448.282,-114.121 448.282,-114.121"/>
</g>
<!-- ActsAsTaggableOn::Tagging -->
<g id="node5" class="node"><title>ActsAsTaggableOn::Tagging</title>
<ellipse fill="none" stroke="black" cx="113.003" cy="-57.5" rx="113.006" ry="18"/>
<text text-anchor="middle" x="113.003" y="-53.3" font-family="Times,serif" font-size="14.00">ActsAsTaggableOn::Tagging</text>
</g>
<!-- Activity&#45;&gt;ActsAsTaggableOn::Tagging -->
<g id="edge1" class="edge"><title>Activity&#45;&gt;ActsAsTaggableOn::Tagging</title>
<path fill="none" stroke="#cf59f5" d="M203.361,-206.819C169.949,-196.139 133.628,-177.907 113.561,-147 101.897,-129.034 102.771,-104.389 105.987,-85.6682"/>
<ellipse fill="none" stroke="#cf59f5" cx="207.504" cy="-208.08" rx="4.00001" ry="4.00001"/>
<polygon fill="#cf59f5" stroke="#cf59f5" points="106.023,-85.4921 112.421,-76.5868 107.017,-80.5919 108.011,-75.6918 108.011,-75.6918 108.011,-75.6918 107.017,-80.5919 103.601,-74.7969 106.023,-85.4921 106.023,-85.4921"/>
<text text-anchor="middle" x="136.723" y="-135.8" font-family="Times,serif" font-size="14.00">taggings</text>
</g>
<!-- Activity&#45;&gt;ActsAsTaggableOn::Tagging -->
<g id="edge3" class="edge"><title>Activity&#45;&gt;ActsAsTaggableOn::Tagging</title>
<path fill="none" stroke="#17d6b4" d="M211.333,-159.525C206.953,-155.31 202.628,-151.108 198.458,-147 176.948,-125.816 153.139,-101.044 136.127,-83.105"/>
<ellipse fill="none" stroke="#17d6b4" cx="214.442" cy="-162.505" rx="4.00002" ry="4.00002"/>
<polygon fill="#17d6b4" stroke="#17d6b4" points="135.693,-82.6463 132.091,-72.2889 132.257,-79.0137 128.822,-75.381 128.822,-75.381 128.822,-75.381 132.257,-79.0137 125.552,-78.4731 135.693,-82.6463 135.693,-82.6463"/>
<text text-anchor="middle" x="233.775" y="-135.8" font-family="Times,serif" font-size="14.00">tag_taggings</text>
</g>
<!-- ActsAsTaggableOn::Tag -->
<g id="node6" class="node"><title>ActsAsTaggableOn::Tag</title>
<ellipse fill="none" stroke="black" cx="341.003" cy="-57.5" rx="97.0617" ry="18"/>
<text text-anchor="middle" x="341.003" y="-53.3" font-family="Times,serif" font-size="14.00">ActsAsTaggableOn::Tag</text>
</g>
<!-- Activity&#45;&gt;ActsAsTaggableOn::Tag -->
<g id="edge2" class="edge"><title>Activity&#45;&gt;ActsAsTaggableOn::Tag</title>
<path fill="none" stroke="#7ef8c2" d="M273.448,-155.194C274.378,-147.57 275.997,-140.02 278.575,-133 285.741,-113.487 300.466,-95.5024 313.816,-82.0937"/>
<polygon fill="#7ef8c2" stroke="#7ef8c2" points="273.443,-155.257 268.114,-164.841 273.02,-160.239 272.598,-165.221 272.598,-165.221 272.598,-165.221 273.02,-160.239 277.082,-165.601 273.443,-155.257 273.443,-155.257"/>
<polygon fill="#7ef8c2" stroke="#7ef8c2" points="313.835,-82.0753 324.157,-78.3742 317.435,-78.605 321.034,-75.1346 321.034,-75.1346 321.034,-75.1346 317.435,-78.605 317.911,-71.895 313.835,-82.0753 313.835,-82.0753"/>
<text text-anchor="middle" x="305.217" y="-135.8" font-family="Times,serif" font-size="14.00">base_tags</text>
</g>
<!-- Activity&#45;&gt;ActsAsTaggableOn::Tag -->
<g id="edge4" class="edge"><title>Activity&#45;&gt;ActsAsTaggableOn::Tag</title>
<path fill="none" stroke="#6beb11" d="M329.03,-156.178C330.497,-153.146 331.832,-150.081 333.003,-147 340.433,-127.441 342.236,-103.768 342.288,-85.8284"/>
<polygon fill="#6beb11" stroke="#6beb11" points="328.953,-156.324 320.293,-163.052 326.611,-160.742 324.269,-165.159 324.269,-165.159 324.269,-165.159 326.611,-160.742 328.245,-167.267 328.953,-156.324 328.953,-156.324"/>
<polygon fill="#6beb11" stroke="#6beb11" points="342.287,-85.7448 346.638,-75.6788 342.213,-80.7453 342.138,-75.7459 342.138,-75.7459 342.138,-75.7459 342.213,-80.7453 337.639,-75.813 342.287,-85.7448 342.287,-85.7448"/>
<text text-anchor="middle" x="348.279" y="-135.8" font-family="Times,serif" font-size="14.00">tags</text>
</g>
<!-- User -->
<g id="node4" class="node"><title>User</title>
<path fill="none" stroke="black" d="M302.725,-317.5C302.725,-317.5 483.281,-317.5 483.281,-317.5 489.281,-317.5 495.281,-323.5 495.281,-329.5 495.281,-329.5 495.281,-517.5 495.281,-517.5 495.281,-523.5 489.281,-529.5 483.281,-529.5 483.281,-529.5 302.725,-529.5 302.725,-529.5 296.725,-529.5 290.725,-523.5 290.725,-517.5 290.725,-517.5 290.725,-329.5 290.725,-329.5 290.725,-323.5 296.725,-317.5 302.725,-317.5"/>
<text text-anchor="middle" x="393.003" y="-514.3" font-family="Times,serif" font-size="14.00">User</text>
<polyline fill="none" stroke="black" points="290.725,-507.5 495.281,-507.5 "/>
<text text-anchor="start" x="298.725" y="-492.3" font-family="Times,serif" font-size="14.00">id :integer</text>
<text text-anchor="start" x="298.725" y="-478.3" font-family="Times,serif" font-size="14.00">email :string</text>
<text text-anchor="start" x="298.725" y="-464.3" font-family="Times,serif" font-size="14.00">encrypted_password :string</text>
<text text-anchor="start" x="298.725" y="-450.3" font-family="Times,serif" font-size="14.00">reset_password_token :string</text>
<text text-anchor="start" x="298.725" y="-436.3" font-family="Times,serif" font-size="14.00">reset_password_sent_at :datetime</text>
<text text-anchor="start" x="298.725" y="-422.3" font-family="Times,serif" font-size="14.00">remember_created_at :datetime</text>
<text text-anchor="start" x="298.725" y="-408.3" font-family="Times,serif" font-size="14.00">sign_in_count :integer</text>
<text text-anchor="start" x="298.725" y="-394.3" font-family="Times,serif" font-size="14.00">current_sign_in_at :datetime</text>
<text text-anchor="start" x="298.725" y="-380.3" font-family="Times,serif" font-size="14.00">last_sign_in_at :datetime</text>
<text text-anchor="start" x="298.725" y="-366.3" font-family="Times,serif" font-size="14.00">current_sign_in_ip :string</text>
<text text-anchor="start" x="298.725" y="-352.3" font-family="Times,serif" font-size="14.00">last_sign_in_ip :string</text>
<text text-anchor="start" x="298.725" y="-338.3" font-family="Times,serif" font-size="14.00">created_at :datetime</text>
<text text-anchor="start" x="298.725" y="-324.3" font-family="Times,serif" font-size="14.00">updated_at :datetime</text>
</g>
<!-- User&#45;&gt;Activity -->
<g id="edge8" class="edge"><title>User&#45;&gt;Activity</title>
<path fill="none" stroke="#58ce72" d="M328.239,-310.43C323.904,-302.929 319.625,-295.525 315.503,-288.391"/>
<ellipse fill="none" stroke="#58ce72" cx="330.302" cy="-314.001" rx="4.00002" ry="4.00002"/>
<polygon fill="#58ce72" stroke="#58ce72" points="315.376,-288.172 314.269,-277.262 312.874,-283.843 310.373,-279.514 310.373,-279.514 310.373,-279.514 312.874,-283.843 306.476,-281.766 315.376,-288.172 315.376,-288.172"/>
</g>
<!-- ActiveRecord::Base -->
<g id="node7" class="node"><title>ActiveRecord::Base</title>
<ellipse fill="none" stroke="black" cx="393.003" cy="-603.5" rx="81.1422" ry="18"/>
<text text-anchor="middle" x="393.003" y="-599.3" font-family="Times,serif" font-size="14.00">ActiveRecord::Base</text>
</g>
<!-- ActiveRecord::Base&#45;&gt;Activity -->
<g id="edge6" class="edge"><title>ActiveRecord::Base&#45;&gt;Activity</title>
<path fill="none" stroke="black" d="M352.639,-587.726C327.467,-576.179 297.083,-557.432 282.003,-530 238.998,-451.771 250.636,-344.459 263.77,-279.768"/>
</g>
<!-- ActiveRecord::Base&#45;&gt;TimeRange -->
<g id="edge7" class="edge"><title>ActiveRecord::Base&#45;&gt;TimeRange</title>
<path fill="none" stroke="black" d="M432.845,-587.717C457.966,-576.122 488.494,-557.324 504.003,-530 579.421,-397.123 555.037,-207.61 536.238,-114.504"/>
</g>
<!-- ActiveRecord::Base&#45;&gt;User -->
<g id="edge9" class="edge"><title>ActiveRecord::Base&#45;&gt;User</title>
<path fill="none" stroke="black" d="M393.003,-585.433C393.003,-571.771 393.003,-551.356 393.003,-529.613"/>
</g>
</g>
</svg>
